<svg xmlns="http://www.w3.org/2000/svg" width="941.736" height="900.078" viewBox="0 0 941.736 900.078"><g id="Group_371" data-name="Group 371" transform="translate(0 0.001)" opacity="0.15"><path id="Path_38" data-name="Path 38" d="M396.489,0,181.334,419.5,324.775,0H264.647l-128.6,376.13L200.348,0h-67.7L76.573,328.025V0H0V900.077H76.573v-328l56.073,328h67.7l-64.3-376.106,128.6,376.106h60.122L181.334,480.592,396.477,900.077h52.8l.055-.031-230.8-449.993L449.329.048l-.1-.049Z" transform="translate(0 0)" fill="#9da382"></path><path id="Path_39" data-name="Path 39" d="M344.026,0,36.274,450.053l307.74,450.024h45.06L81.322,450.053,389.092,0Z" transform="translate(184.573 0)" fill="#9da382"></path><path id="Path_40" data-name="Path 40" d="M430.142,0,45.44,450.053,430.124,900.077H466.1L81.416,450.053,466.118,0Z" transform="translate(231.214 0)" fill="#9da382"></path><path id="Path_41" data-name="Path 41" d="M516.386,0,54.758,450.053l461.6,450.024h25.084L79.824,450.053,541.464,0Z" transform="translate(278.626 0)" fill="#9da382"></path><path id="Path_42" data-name="Path 42" d="M602.829,0,64.257,450.053,602.8,900.077H614.75L76.19,450.053,614.774,0Z" transform="translate(326.961 0)" fill="#9da382"></path></g></svg>